# xmcd
#
# Track frame offsets:
# 150
# 14443
# 34230
# 50475
# 76838
# 92508
# 109235
# 126550
# 140638
# 157868
# 177710
#
# Disc length: 2494 seconds
#
#
# Revision: 0
# Processed by: cddbd v1.5.2PL0 Copyright (c) Steve Scherf et al.
# Submitted via: Nero 7, 11, 10, 0 
#
DISCID=9309bc0b
DTITLE=Glen Fortinberry - Ten Phases Of Love
DYEAR=1994
DGENRE=Blues
TTITLE0=No Other Way
TTITLE1=Hard Knocks
TTITLE2=Down In The Sun
TTITLE3=As The Years Go Passing By
TTITLE4=Ain't Jokin'
TTITLE5=Blues For Breakfast
TTITLE6=Hey Hey
TTITLE7=Bad Luck Baby
TTITLE8=Guess I Won't
TTITLE9=She's A Bad Dresser
TTITLE10=Serenade To Eilean Donan
EXTD=
EXTT0=No Other Way
EXTT1=Hard Knocks
EXTT2=Down In The Sun
EXTT3=As The Years Go Passing By
EXTT4=Ain't Jokin'
EXTT5=Blues For Breakfast
EXTT6=Hey Hey
EXTT7=Bad Luck Baby
EXTT8=Guess I Won't
EXTT9=She's A Bad Dresser
EXTT10=Serenade To Eilean Donan
PLAYORDER=
